/* XPM */
static char * guacharo_xpm[] = {
"32 32 576 2",
"  	c None",
". 	c #82815B",
"+ 	c #D4D2A6",
"@ 	c #DDDBB9",
"# 	c #DFDDBD",
"$ 	c #E9E8D2",
"% 	c #E9E7D2",
"& 	c #DEDCBC",
"* 	c #E6E5CD",
"= 	c #E3E2C7",
"- 	c #D8D6AF",
"; 	c #A29F73",
"> 	c #C0BD96",
", 	c #E8E4AD",
"' 	c #E4E09E",
") 	c #E4E09F",
"! 	c #E4E0A0",
"~ 	c #EBE8B9",
"{ 	c #EFEDC8",
"] 	c #E7E4AD",
"^ 	c #EFEDC7",
"/ 	c #EEECC5",
"( 	c #E4E0A1",
"_ 	c #E5E1A4",
": 	c #DDDAAE",
"< 	c #BCB991",
"[ 	c #E3DE9B",
"} 	c #E3DE9D",
"| 	c #E3DE9E",
"1 	c #E3DFA0",
"2 	c #E3E0A2",
"3 	c #EEEBC5",
"4 	c #EEEBC8",
"5 	c #E9E6B5",
"6 	c #E6E1A9",
"7 	c #CDC7A4",
"8 	c #756A4B",
"9 	c #64583B",
"0 	c #685E41",
"a 	c #7D724C",
"b 	c #B6AD77",
"c 	c #E2DD9E",
"d 	c #D6D3A1",
"e 	c #B9B58A",
"f 	c #E2DC97",
"g 	c #E2DC99",
"h 	c #E2DC9B",
"i 	c #E4DE9D",
"j 	c #E4DEA0",
"k 	c #E4DFA2",
"l 	c #E8E3AE",
"m 	c #EFECC8",
"n 	c #EEECC7",
"o 	c #ECE8BE",
"p 	c #DBD6A6",
"q 	c #332912",
"r 	c #090600",
"s 	c #221A05",
"t 	c #36290E",
"u 	c #372B0F",
"v 	c #2B210A",
"w 	c #171103",
"x 	c #1C1505",
"y 	c #9A8F5E",
"z 	c #D4D09B",
"A 	c #B6B287",
"B 	c #E1DA96",
"C 	c #E1DA98",
"D 	c #E3DD9F",
"E 	c #E4DEA1",
"F 	c #E5DFA4",
"G 	c #ECE7BE",
"H 	c #EFEBC8",
"I 	c #EEEBC7",
"J 	c #E5DFA5",
"K 	c #DFD9A0",
"L 	c #261C0A",
"M 	c #151004",
"N 	c #766439",
"O 	c #867345",
"P 	c #837044",
"Q 	c #867242",
"R 	c #886F3E",
"S 	c #7C683A",
"T 	c #0D0900",
"U 	c #A59965",
"V 	c #D3CD97",
"W 	c #BAB58D",
"X 	c #E0D892",
"Y 	c #E0D994",
"Z 	c #E2DA99",
"` 	c #E3DC9E",
" .	c #E4DDA1",
"..	c #E5DFA3",
"+.	c #E6E0A8",
"@.	c #EEEAC6",
"#.	c #EFEAC7",
"$.	c #E7E1AA",
"%.	c #72653F",
"&.	c #3C3015",
"*.	c #876E3D",
"=.	c #866E3D",
"-.	c #846D3C",
";.	c #746135",
">.	c #201908",
",.	c #DBD38F",
"'.	c #D4CD97",
").	c #C6C2A0",
"!.	c #EAE4B6",
"~.	c #E1D998",
"{.	c #E3DB9D",
"].	c #E4DDA0",
"^.	c #E4DDA3",
"/.	c #E5DEA4",
"(.	c #E5DEA5",
"_.	c #E9E4B4",
":.	c #E8E3B1",
"<.	c #E4DDA4",
"[.	c #352A12",
"}.	c #846F3F",
"|.	c #000000",
"1.	c #63532C",
"2.	c #483C1E",
"3.	c #040200",
"4.	c #856E3D",
"5.	c #171002",
"6.	c #DCD6A1",
"7.	c #DFDBB5",
"8.	c #C3BF9A",
"9.	c #E9E3B5",
"0.	c #EAE3B8",
"a.	c #E6DFAA",
"b.	c #E2D99A",
"c.	c #E3DB9E",
"d.	c #E4DCA1",
"e.	c #ECE6BE",
"f.	c #ECE8C2",
"g.	c #E0D89E",
"h.	c #493A1B",
"i.	c #806B3C",
"j.	c #231D0C",
"k.	c #6B592F",
"l.	c #836D3D",
"m.	c #69572F",
"n.	c #1B1404",
"o.	c #DFDAAD",
"p.	c #DDD7AE",
"q.	c #C1BB96",
"r.	c #E8E1B2",
"s.	c #E8E2B4",
"t.	c #EAE5B9",
"u.	c #E4DCA3",
"v.	c #E3DA9D",
"w.	c #E4DB9F",
"x.	c #E5DDA7",
"y.	c #ECE6C0",
"z.	c #EBE5BA",
"A.	c #DFD69B",
"B.	c #715F37",
"C.	c #826D3D",
"D.	c #2B2514",
"E.	c #846D3D",
"F.	c #191204",
"G.	c #E0D9AC",
"H.	c #DCD5AA",
"I.	c #BEB892",
"J.	c #E7DFAE",
"K.	c #E7E0B0",
"L.	c #E9E1B4",
"M.	c #EBE5BB",
"N.	c #E8E0AF",
"O.	c #E2D89A",
"P.	c #E3D99B",
"Q.	c #EBE5BD",
"R.	c #E3D99C",
"S.	c #9F8F62",
"T.	c #7F6A3C",
"U.	c #040302",
"V.	c #19150C",
"W.	c #130E02",
"X.	c #E0D8A9",
"Y.	c #DAD3A6",
"Z.	c #BCB58E",
"`.	c #E6DDAA",
" +	c #E6DEAD",
".+	c #E8DFB0",
"++	c #E9E2B6",
"@+	c #EAE3B9",
"#+	c #E3D9A0",
"$+	c #E2D799",
"%+	c #EAE3B7",
"&+	c #E2DBB2",
"*+	c #D9D097",
"=+	c #BDB07A",
"-+	c #A18A5C",
";+	c #625430",
">+	c #806C3E",
",+	c #251C06",
"'+	c #0F0B01",
")+	c #DDD5A4",
"!+	c #D8D1A2",
"~+	c #B9B288",
"{+	c #E5DCA6",
"]+	c #E5DDA9",
"^+	c #E7DEAC",
"/+	c #E8DFAF",
"(+	c #E8E0B2",
"_+	c #EAE2B5",
":+	c #E7DEAB",
"<+	c #DDD293",
"[+	c #AA9D69",
"}+	c #5D4C2A",
"|+	c #483716",
"1+	c #7A6639",
"2+	c #DCD39F",
"3+	c #D6CE9E",
"4+	c #A69C66",
"5+	c #D9CB7E",
"6+	c #DED391",
"7+	c #E4DAA3",
"8+	c #E7DDAB",
"9+	c #E7DEAF",
"0+	c #E8DFB1",
"a+	c #A89D74",
"b+	c #231A07",
"c+	c #31260E",
"d+	c #7A673D",
"e+	c #7C6739",
"f+	c #605029",
"g+	c #453719",
"h+	c #846E3E",
"i+	c #766438",
"j+	c #816B3B",
"k+	c #100B02",
"l+	c #D2C580",
"m+	c #C7BA77",
"n+	c #A39761",
"o+	c #D8C879",
"p+	c #DACA7C",
"q+	c #DBCC81",
"r+	c #DDCF87",
"s+	c #DDD08B",
"t+	c #E0D495",
"u+	c #E4D9A4",
"v+	c #7D704A",
"w+	c #090700",
"x+	c #78653D",
"y+	c #7F6A3B",
"z+	c #7E6A3F",
"A+	c #857040",
"B+	c #574724",
"C+	c #65542E",
"D+	c #120D02",
"E+	c #D1C275",
"F+	c #C4B772",
"G+	c #A1955C",
"H+	c #D7C675",
"I+	c #D9C878",
"J+	c #DACB7E",
"K+	c #DBCD83",
"L+	c #DCCE86",
"M+	c #DDCF88",
"N+	c #AD9F65",
"O+	c #120C01",
"P+	c #8A764A",
"Q+	c #726034",
"R+	c #4B3B19",
"S+	c #64522A",
"T+	c #866F3E",
"U+	c #9F8859",
"V+	c #967F53",
"W+	c #372A0F",
"X+	c #161004",
"Y+	c #D2C372",
"Z+	c #C3B56E",
"`+	c #A0955B",
" @	c #D7C573",
".@	c #D9C776",
"+@	c #DACA7B",
"@@	c #DBCC80",
"#@	c #DCCD85",
"$@	c #D9CA84",
"%@	c #221908",
"&@	c #3F3215",
"*@	c #6C5A2F",
"=@	c #54441F",
"-@	c #856D3D",
";@	c #836E3D",
">@	c #8E794D",
",@	c #3E3218",
"'@	c #1E1707",
")@	c #D4C371",
"!@	c #C3B36B",
"~@	c #9D9155",
"{@	c #D6C36F",
"]@	c #D7C571",
"^@	c #D9C777",
"/@	c #DACA7D",
"(@	c #CFC07B",
"_@	c #2F250C",
":@	c #846E3D",
"<@	c #8E7B4B",
"[@	c #857042",
"}@	c #64532B",
"|@	c #544522",
"1@	c #D4C16E",
"2@	c #C1B166",
"3@	c #9B8F51",
"4@	c #D5C16C",
"5@	c #D9C97D",
"6@	c #DFD090",
"7@	c #E1D499",
"8@	c #D4C791",
"9@	c #7B683A",
"0@	c #857140",
"a@	c #857244",
"b@	c #867244",
"c@	c #34280F",
"d@	c #6A5930",
"e@	c #D4C06B",
"f@	c #BFAE62",
"g@	c #A79B66",
"h@	c #DDCD87",
"i@	c #DDCF8B",
"j@	c #E0D293",
"k@	c #E1D497",
"l@	c #CBBD87",
"m@	c #604E28",
"n@	c #907C4F",
"o@	c #2D220C",
"p@	c #917B4B",
"q@	c #52411F",
"r@	c #D2C384",
"s@	c #DDCC87",
"t@	c #C9BA7A",
"u@	c #A69962",
"v@	c #DCCB85",
"w@	c #DCCD88",
"x@	c #DECE8C",
"y@	c #DFD091",
"z@	c #C8B982",
"A@	c #8E7B4A",
"B@	c #786536",
"C@	c #614F28",
"D@	c #A0895B",
"E@	c #8E7847",
"F@	c #998251",
"G@	c #7C673B",
"H@	c #998857",
"I@	c #DCCC88",
"J@	c #C8B978",
"K@	c #A4955D",
"L@	c #DBC880",
"M@	c #DBCA84",
"N@	c #DDCB87",
"O@	c #86764A",
"P@	c #3E3113",
"Q@	c #867140",
"R@	c #796636",
"S@	c #7D6C3B",
"T@	c #7B6837",
"U@	c #75623A",
"V@	c #5D4C28",
"W@	c #907847",
"X@	c #917B4C",
"Y@	c #463717",
"Z@	c #D6C583",
"`@	c #DCCA84",
" #	c #DBC881",
".#	c #C6B672",
"+#	c #A19258",
"@#	c #D9C67B",
"##	c #D5C47C",
"$#	c #382D14",
"%#	c #2F240D",
"&#	c #AD9465",
"*#	c #4E3F1F",
"=#	c #070400",
"-#	c #4B3C1D",
";#	c #756237",
">#	c #413315",
",#	c #3B2F12",
"'#	c #836F3E",
")#	c #8E7948",
"!#	c #96804D",
"~#	c #968051",
"{#	c #9B8658",
"]#	c #6D5A33",
"^#	c #574622",
"/#	c #8F7845",
"(#	c #493A1A",
"_#	c #8D7644",
":#	c #54431F",
"<#	c #1F1603",
"[#	c #C0AF73",
"}#	c #DAC87F",
"|#	c #D9C67D",
"1#	c #C4B36D",
"2#	c #9F8F54",
"3#	c #D6C175",
"4#	c #302610",
"5#	c #291F0C",
"6#	c #927C50",
"7#	c #6E5C31",
"8#	c #806C3C",
"9#	c #786336",
"0#	c #7A6437",
"a#	c #6F5B33",
"b#	c #A28B58",
"c#	c #AC9364",
"d#	c #8B7648",
"e#	c #8C7544",
"f#	c #6F5C34",
"g#	c #695730",
"h#	c #8E7743",
"i#	c #53431F",
"j#	c #BBA75D",
"k#	c #D4BF69",
"l#	c #D9C679",
"m#	c #D8C57A",
"n#	c #D8C378",
"o#	c #C3B069",
"p#	c #9D8D50",
"q#	c #C9B36B",
"r#	c #181103",
"s#	c #856F3D",
"t#	c #2F240C",
"u#	c #3F3216",
"v#	c #715D35",
"w#	c #8A713F",
"x#	c #8C7341",
"y#	c #907846",
"z#	c #967E4D",
"A#	c #9A8350",
"B#	c #AC9363",
"C#	c #B19868",
"D#	c #977F49",
"E#	c #967E4C",
"F#	c #A38A5A",
"G#	c #A6905B",
"H#	c #B9A45F",
"I#	c #D1BB66",
"J#	c #D4BD66",
"K#	c #D3BC63",
"L#	c #D2BA60",
"M#	c #D4BB65",
"N#	c #D7C173",
"O#	c #C1AD64",
"P#	c #988645",
"Q#	c #C6AD52",
"R#	c #1E1606",
"S#	c #604E2A",
"T#	c #251D09",
"U#	c #856D3C",
"V#	c #786436",
"W#	c #3E3217",
"X#	c #36290F",
"Y#	c #433415",
"Z#	c #A89060",
"`#	c #AC9463",
" $	c #937D4E",
".$	c #877040",
"+$	c #967F4C",
"@$	c #B09865",
"#$	c #C5B16F",
"$$	c #D3BC66",
"%$	c #D3BB63",
"&$	c #D3BB62",
"*$	c #D2BA61",
"=$	c #D1B85D",
"-$	c #D0B75A",
";$	c #CFB556",
">$	c #CEB354",
",$	c #BDA757",
"'$	c #907C36",
")$	c #B79D47",
"!$	c #281C06",
"~$	c #8C723F",
"{$	c #4D3E1E",
"]$	c #171000",
"^$	c #1B1303",
"/$	c #463616",
"($	c #5E4D27",
"_$	c #C0AC67",
":$	c #A99559",
"<$	c #271D08",
"[$	c #A68F61",
"}$	c #A58D5C",
"|$	c #AB945D",
"1$	c #C4AF6B",
"2$	c #D7C274",
"3$	c #D6C06D",
"4$	c #D2B85D",
"5$	c #D1B85C",
"6$	c #D1B658",
"7$	c #D0B455",
"8$	c #CEB351",
"9$	c #CEB14F",
"0$	c #B69C43",
"a$	c #907B33",
"b$	c #C4A745",
"c$	c #271E09",
"d$	c #86703F",
"e$	c #231906",
"f$	c #574621",
"g$	c #AB954B",
"h$	c #AB9653",
"i$	c #C5AD62",
"j$	c #D6BE6B",
"k$	c #A79146",
"l$	c #968045",
"m$	c #B59C57",
"n$	c #C2A853",
"o$	c #D3B962",
"p$	c #D2B75D",
"q$	c #D0B454",
"r$	c #CFB453",
"s$	c #CFB251",
"t$	c #CDB14E",
"u$	c #CDAF4C",
"v$	c #CDAF4A",
"w$	c #B59B41",
"x$	c #8E7931",
"y$	c #877236",
"z$	c #020100",
"A$	c #110B01",
"B$	c #32270F",
"C$	c #AC9343",
"D$	c #CEAF4C",
"E$	c #D2B85E",
"F$	c #D4B861",
"G$	c #D1B558",
"H$	c #CEB04D",
"I$	c #D0B355",
"J$	c #D2B860",
"K$	c #CCAD49",
"L$	c #CCAD47",
"M$	c #CCAD45",
"N$	c #B4983E",
"O$	c #8D772E",
"P$	c #C1A33E",
"Q$	c #8B7432",
"R$	c #BC9F3E",
"S$	c #CBAB43",
"T$	c #CBAB45",
"U$	c #CDAE4D",
"V$	c #D0B357",
"W$	c #CCAD4B",
"X$	c #CBAC47",
"Y$	c #CEB050",
"Z$	c #CBAB42",
"`$	c #CBAB41",
" %	c #B3973C",
".%	c #88722A",
"+%	c #CAAB44",
"@%	c #CAAC44",
"#%	c #CBAC46",
"$%	c #CBAD47",
"%%	c #CCAF4B",
"&%	c #D0B55B",
"*%	c #D1B65C",
"=%	c #D1B75D",
"-%	c #D1B75F",
";%	c #D2B962",
">%	c #CFB255",
",%	c #CFB355",
"'%	c #CFB356",
")%	c #CFB456",
"!%	c #CFB253",
"~%	c #D2B861",
"{%	c #D1B75E",
"]%	c #D1B65D",
"^%	c #CDAF4E",
"/%	c #CBAD48",
"(%	c #CBAC45",
"_%	c #AC9036",
"                                                                ",
"  . + @ @ @ # $ % % % % % & @ @ @ @ @ * % % % % % = @ @ @ - ;   ",
"  > , ' ' ) ! ~ { { { { { ] ! ! ! ! ! ^ { { { { / ( ! ' ' _ :   ",
"  < [ [ } | 1 2 3 4 4 4 4 5 ( ( ( ( 6 4 7 8 9 0 a b c } [ [ d   ",
"  e f g h i j k l m n n n o k k k k p q r s t u v w x y g f z   ",
"  A B C h D E F F G H H H I J J J K L M N O P Q R R S T U B V   ",
"  W X Y Z `  ...J +.@.#.#.#.$.J J %.&.*.R *.R R R =.-.;.>.,.'.  ",
"  ).!.Z ~.{.].^./.(._.@.@.@.:.(.<.[.}.R S |.1.R R 2.3.4.5.6.7.  ",
"  8.9.0.a.b.c.d.d.d.d.e.f.f.!.d.g.h.=.R i.j.k.R R l.m.4.n.o.p.  ",
"  q.r.s.0.t.u.v.w.w.w.x.y.y.z.w.A.B.R R R R R C.D.E.*.4.F.G.H.  ",
"  I.J.K.L.0.M.N.O.P.P.P.N.Q.Q.R.O.S.*.R R R T.U.|.V.4.l.W.X.Y.  ",
"  Z.`. +.+L.++0.@+#+$+$+$+%+&+*+=+-+R R R R R R ;+>+*.,+'+)+!+  ",
"  ~+{+]+^+/+(+L.L._+:+<+[+}+|+C.=.R R R R =.1+4.=.*.R S '+2+3+  ",
"  4+5+6+7+8+9+0+0+.+a+b+c+O d+l.=.e+4.R R f+g+h+i+h+*.j+k+l+m+  ",
"  n+o+p+q+r+s+t+u+v+w+x+-.*.y+z+*.R *.R R R R R -.A+B+C+D+E+F+  ",
"  G+H+I+J+K+L+M+N+O+P+Q+y+R+R R R S+R R R R R R T+U+V+W+X+Y+Z+  ",
"  `+ @.@+@@@#@$@%@&@*@=@-@4.R R R *.R R R R R R R ;@>@,@'@)@!@  ",
"  ~@{@]@^@/@q+(@_@=.*.:@E.:@R R R R R R R R R 4.<@[@*.}@|@1@2@  ",
"  3@4@{@5@6@7@8@9@R R R R R R R R R R R R R R R 0@a@b@c@d@e@f@  ",
"  g@h@i@6@j@k@l@=.R R R R R R R R R R R R R *.m@n@o@p@q@r@s@t@  ",
"  u@v@w@x@y@z@A@R R R R R R R R R R R R B@*.C@D@E@F@G@H@I@v@J@  ",
"  K@L@M@N@O@P@Q@R R R R R R R R R R R@S@T@-.U@V@W@X@Y@Z@`@ #.#  ",
"  +#@###$#%#&#=.*#=#-#;#>#,#'#)#!#~#{#]#^#/#(#_#:#<#[#M@}#|#1#  ",
"  2#3#4#5#6#7#R 8#R R R R 9#0#a#b#c#d#e#f#g#T+h#i#j#k#l#m#n#o#  ",
"  p#q#r#s#t#*@*.u#v#w#x#y#z#A#B#C#D#R R E#F#G#H#I#J#K#L#M#N#O#  ",
"  P#Q#R#S#T#U#V#W#X#Y#>@Z#`#C#C#C# $.$+$@$#$$$%$&$*$=$-$;$>$,$  ",
"  '$)$!$~${$*.S ]$^$/$($_$:$<$[$C#}$|$1$2$2$3$4$4$5$6$7$8$9$0$  ",
"  a$b$c$d$t#e$f$g$h$i$j$j$M#k$l$m$n$o$j$j$j$j$p$q$r$s$t$u$v$w$  ",
"  x$y$z$A$B$C$D$E$F$F$F$F$G$H$H$H$H$I$F$F$F$F$J$H$D$v$K$L$M$N$  ",
"  O$P$Q$R$S$T$U$V$V$V$V$V$W$T$T$T$T$X$V$V$V$V$V$Y$T$S$Z$`$`$ %  ",
"  .%+%@%#%$%%%&%*%=%-%J$;%>%,%'%)%,%!%~%~%J${%]%*%^%/%$%(%@%_%  ",
"                                                                "};
