/* XPM */
static char * guacharo_xpm[] = {
"32 32 582 2",
"  	c None",
". 	c #A8A57D",
"+ 	c #B8B798",
"@ 	c #BAB89A",
"# 	c #BDBC9F",
"$ 	c #CCCAB4",
"% 	c #BBBA9C",
"& 	c #CBCAB3",
"* 	c #C0BFA3",
"= 	c #ECE9BB",
"- 	c #E7E4A9",
"; 	c #E7E3A7",
"> 	c #E7E3A8",
", 	c #EFECC3",
"' 	c #F1EFCD",
") 	c #E9E5B1",
"! 	c #E7E3A9",
"~ 	c #E8E4AD",
"{ 	c #F0EDC7",
"] 	c #B3B08C",
"^ 	c #E3DE9B",
"/ 	c #E3DE9A",
"( 	c #E3DE9C",
"_ 	c #E3E09E",
": 	c #E5E09E",
"< 	c #E7E2A4",
"[ 	c #EEEDC7",
"} 	c #EFEDC9",
"| 	c #EAE6B0",
"1 	c #DDBD84",
"2 	c #DCB67E",
"3 	c #D59667",
"4 	c #D49062",
"5 	c #D59768",
"6 	c #DBA67B",
"7 	c #EADFB9",
"8 	c #EFEDC8",
"9 	c #E8E3A8",
"0 	c #ADAB84",
"a 	c #E2DC97",
"b 	c #E2DC99",
"c 	c #E4DE9B",
"d 	c #E4DE9E",
"e 	c #E4E0A0",
"f 	c #E5E0A2",
"g 	c #EAE6B4",
"h 	c #F0ECC9",
"i 	c #E6D1A3",
"j 	c #D38D60",
"k 	c #D38D5F",
"l 	c #D49264",
"m 	c #D6986B",
"n 	c #D48F61",
"o 	c #D59365",
"p 	c #D79D6C",
"q 	c #D9AC77",
"r 	c #DDBA83",
"s 	c #E1CF90",
"t 	c #E2DB99",
"u 	c #AAA680",
"v 	c #E1DA93",
"w 	c #E1DC97",
"x 	c #E3DC9A",
"y 	c #E5DE9F",
"z 	c #E5DFA2",
"A 	c #E6E0A4",
"B 	c #E6E0A6",
"C 	c #EEEAC2",
"D 	c #EFE9C4",
"E 	c #E9D7B1",
"F 	c #DBAA7F",
"G 	c #D69968",
"H 	c #DAAF78",
"I 	c #E0D491",
"J 	c #B0AC88",
"K 	c #E0D892",
"L 	c #E2DA94",
"M 	c #E2DC9A",
"N 	c #E4DD9F",
"O 	c #E6DFA4",
"P 	c #E7E0A7",
"Q 	c #E8E2AE",
"R 	c #DAA479",
"S 	c #D59467",
"T 	c #D38E5F",
"U 	c #D49063",
"V 	c #D49061",
"W 	c #D6A26F",
"X 	c #E0CD8B",
"Y 	c #E0D891",
"Z 	c #AEAA84",
"` 	c #BAB797",
" .	c #E9E3B1",
"..	c #E4DB99",
"+.	c #E3DA97",
"@.	c #E4DC9E",
"#.	c #E6DEA3",
"$.	c #DFD69D",
"%.	c #B29C6C",
"&.	c #9D7D51",
"*.	c #9D663C",
"=.	c #B16D41",
"-.	c #CC8659",
";.	c #D28B5D",
">.	c #D28C5E",
",.	c #936B51",
"'.	c #3F3632",
").	c #423835",
"!.	c #A88871",
"~.	c #D28D5F",
"{.	c #CE996C",
"].	c #B9B18F",
"^.	c #B7B391",
"/.	c #EAE4B6",
"(.	c #EAE5B7",
"_.	c #E7E1AA",
":.	c #E4DC9D",
"<.	c #AA9260",
"[.	c #62300B",
"}.	c #602600",
"|.	c #662800",
"1.	c #6C2B00",
"2.	c #732D00",
"3.	c #813808",
"4.	c #BA7242",
"5.	c #CE885A",
"6.	c #CF885A",
"7.	c #AE7A58",
"8.	c #261D1C",
"9.	c #090707",
"0.	c #8A8989",
"a.	c #565150",
"b.	c #BE9375",
"c.	c #CD8759",
"d.	c #BE774A",
"e.	c #B46E3F",
"f.	c #B57A4C",
"g.	c #B18C68",
"h.	c #B4B08D",
"i.	c #E9E2B2",
"j.	c #EAE4B4",
"k.	c #EBE5B8",
"l.	c #9B7951",
"m.	c #612601",
"n.	c #662902",
"o.	c #6A2C02",
"p.	c #6F2E04",
"q.	c #723005",
"r.	c #6C3109",
"s.	c #63300D",
"t.	c #63300E",
"u.	c #93572E",
"v.	c #CB8456",
"w.	c #715E50",
"x.	c #1D1717",
"y.	c #000000",
"z.	c #3F3F3F",
"A.	c #2F2929",
"B.	c #8A7668",
"C.	c #CE8859",
"D.	c #CF895A",
"E.	c #CF895B",
"F.	c #D0895B",
"G.	c #D08A5C",
"H.	c #C17D4E",
"I.	c #A57951",
"J.	c #B2AB88",
"K.	c #E8E0AE",
"L.	c #EAE2B0",
"M.	c #A88960",
"N.	c #692A02",
"O.	c #6E2C01",
"P.	c #762F00",
"Q.	c #7A3101",
"R.	c #753205",
"S.	c #723106",
"T.	c #713107",
"U.	c #6B3009",
"V.	c #6D3109",
"W.	c #793406",
"X.	c #BD7747",
"Y.	c #A0775A",
"Z.	c #241B1B",
"`.	c #060404",
" +	c #070505",
".+	c #201919",
"++	c #AE8163",
"@+	c #CA8455",
"#+	c #CB8556",
"$+	c #CC8557",
"%+	c #C27A4B",
"&+	c #B77140",
"*+	c #B57142",
"=+	c #AF916C",
"-+	c #C4C1B2",
";+	c #E2E0D2",
">+	c #C1AE94",
",+	c #742F02",
"'+	c #782F00",
")+	c #7D3201",
"!+	c #7B3202",
"~+	c #7C3202",
"{+	c #803300",
"]+	c #743105",
"^+	c #743106",
"/+	c #994E1D",
"(+	c #C47D4E",
"_+	c #725542",
":+	c #312927",
"<+	c #332A28",
"[+	c #866B56",
"}+	c #C77F51",
"|+	c #C78051",
"1+	c #C78052",
"2+	c #C88152",
"3+	c #C88153",
"4+	c #CD8C61",
"5+	c #CD895C",
"6+	c #C98354",
"7+	c #BE7647",
"8+	c #AB764B",
"9+	c #D0CFC9",
"0+	c #F0F0F0",
"a+	c #AD8267",
"b+	c #7E3301",
"c+	c #7D3301",
"d+	c #985C34",
"e+	c #C7B2A3",
"f+	c #A98973",
"g+	c #B18A69",
"h+	c #A47347",
"i+	c #975A27",
"j+	c #8A4410",
"k+	c #863A07",
"l+	c #C17949",
"m+	c #C17A4A",
"n+	c #C37B4C",
"o+	c #C47F51",
"p+	c #C27B4C",
"q+	c #C37C4D",
"r+	c #C47C4D",
"s+	c #C57D4F",
"t+	c #C57E4F",
"u+	c #C68051",
"v+	c #C67F50",
"w+	c #BA8359",
"x+	c #CCCBC4",
"y+	c #9F6742",
"z+	c #8A491E",
"A+	c #C2A490",
"B+	c #D0BAAC",
"C+	c #DFD9D6",
"D+	c #D5D0CC",
"E+	c #F1F1F1",
"F+	c #F2F2F2",
"G+	c #F3F3F3",
"H+	c #ECEAE8",
"I+	c #D9CBC1",
"J+	c #D6C4B8",
"K+	c #BA7545",
"L+	c #BE7747",
"M+	c #BF7748",
"N+	c #BF7849",
"O+	c #C07849",
"P+	c #C0794A",
"Q+	c #C17A4B",
"R+	c #AB8658",
"S+	c #BFBDB2",
"T+	c #A57252",
"U+	c #DDD1C9",
"V+	c #E3E1DF",
"W+	c #D3CCC8",
"X+	c #A76439",
"Y+	c #B96F41",
"Z+	c #BB7343",
"`+	c #BB7344",
" @	c #BB7444",
".@	c #BC7445",
"+@	c #BC7545",
"@@	c #BD7546",
"#@	c #BD7646",
"$@	c #AC8051",
"%@	c #A4A091",
"&@	c #E9E9E9",
"*@	c #E7E0DC",
"=@	c #ECEBEB",
"-@	c #C7BEB8",
";@	c #E8E6E4",
">@	c #A76235",
",@	c #AF6635",
"'@	c #B76F3F",
")@	c #B86F40",
"!@	c #B87040",
"~@	c #B97041",
"{@	c #B97141",
"]@	c #B97142",
"^@	c #BA7142",
"/@	c #BA7243",
"(@	c #BB7243",
"_@	c #AB7C4C",
":@	c #A39F8F",
"<@	c #E3E3E3",
"[@	c #E4E4E4",
"}@	c #EEEEEE",
"|@	c #D0CAC5",
"1@	c #EFEFEF",
"2@	c #E8E8E8",
"3@	c #C3B8B0",
"4@	c #AB6235",
"5@	c #AE6535",
"6@	c #B46B3B",
"7@	c #B46B3C",
"8@	c #B46C3C",
"9@	c #B56D3D",
"0@	c #B66D3D",
"a@	c #B66E3E",
"b@	c #B76E3F",
"c@	c #A87846",
"d@	c #9F9C8D",
"e@	c #E7E7E7",
"f@	c #E1E1E1",
"g@	c #E0DFDF",
"h@	c #E8E6E6",
"i@	c #EDEDED",
"j@	c #EAEAEA",
"k@	c #AD988B",
"l@	c #AE6536",
"m@	c #AF6736",
"n@	c #B06737",
"o@	c #B06838",
"p@	c #B16838",
"q@	c #B26939",
"r@	c #B26A3A",
"s@	c #B36A3B",
"t@	c #B36B3B",
"u@	c #A47542",
"v@	c #9E9A8B",
"w@	c #E5E5E5",
"x@	c #DDDDDD",
"y@	c #DEDEDE",
"z@	c #EBEBEB",
"A@	c #D9D9D9",
"B@	c #E0E0E0",
"C@	c #9D7E6A",
"D@	c #AC6232",
"E@	c #AC6332",
"F@	c #AD6434",
"G@	c #AB6232",
"H@	c #AB6132",
"I@	c #AE6434",
"J@	c #AE6637",
"K@	c #B46F42",
"L@	c #AF6636",
"M@	c #A1713E",
"N@	c #9F9D8E",
"O@	c #E6E6E6",
"P@	c #DCDCDC",
"Q@	c #D6D6D6",
"R@	c #D7D7D7",
"S@	c #906245",
"T@	c #A85E2E",
"U@	c #A85F2E",
"V@	c #AE683B",
"W@	c #994E1E",
"X@	c #A55C2B",
"Y@	c #AA6130",
"Z@	c #AB6231",
"`@	c #AD6636",
" #	c #AC6333",
".#	c #AD6333",
"+#	c #AD6433",
"@#	c #A57444",
"##	c #A6A194",
"$#	c #D2D2D2",
"%#	c #CECECE",
"&#	c #C8C8C8",
"*#	c #E2E1E0",
"=#	c #8D5126",
"-#	c #9B5120",
";#	c #A35A29",
">#	c #A55B2B",
",#	c #B06D40",
"'#	c #A45D2D",
")#	c #8E4413",
"!#	c #A35928",
"~#	c #B26F44",
"{#	c #A95F2F",
"]#	c #A9602F",
"^#	c #A06F3F",
"/#	c #BCBAB3",
"(#	c #DFDFDF",
"_#	c #E2E2E2",
":#	c #C5C0BC",
"<#	c #944F23",
"[#	c #8B4211",
"}#	c #A05524",
"|#	c #A25827",
"1#	c #A35828",
"2#	c #8F4514",
"3#	c #924816",
"4#	c #A45A29",
"5#	c #A45B2A",
"6#	c #A55B2A",
"7#	c #A65C2B",
"8#	c #9D6D3B",
"9#	c #B9B7B0",
"0#	c #AA9F97",
"a#	c #984F20",
"b#	c #9D5221",
"c#	c #8C4110",
"d#	c #8C4210",
"e#	c #9D5423",
"f#	c #A15825",
"g#	c #934918",
"h#	c #8A400F",
"i#	c #9E5423",
"j#	c #A35A2A",
"k#	c #BD8560",
"l#	c #A15726",
"m#	c #9B6A37",
"n#	c #B7B5AE",
"o#	c #D8D8D8",
"p#	c #DADADA",
"q#	c #DBDBDB",
"r#	c #927E70",
"s#	c #984D1D",
"t#	c #9E5828",
"u#	c #944B1A",
"v#	c #833A08",
"w#	c #964D1D",
"x#	c #B87F59",
"y#	c #934817",
"z#	c #893E0D",
"A#	c #9A4F1E",
"B#	c #9D5322",
"C#	c #9E5322",
"D#	c #9F5423",
"E#	c #976633",
"F#	c #A5A297",
"G#	c #D5D5D5",
"H#	c #8E7563",
"I#	c #964A19",
"J#	c #9C5525",
"K#	c #964D1C",
"L#	c #833807",
"M#	c #8C4211",
"N#	c #974D1B",
"O#	c #914615",
"P#	c #883E0C",
"Q#	c #994D1C",
"R#	c #994F1D",
"S#	c #9A501E",
"T#	c #9B501F",
"U#	c #95632F",
"V#	c #77682F",
"W#	c #A08B3E",
"X#	c #918144",
"Y#	c #978D68",
"Z#	c #A19B85",
"`#	c #AFACA0",
" $	c #BDBBB5",
".$	c #CAC9C6",
"+$	c #D1D1D0",
"@$	c #815539",
"#$	c #924715",
"$$	c #9D582B",
"%$	c #924614",
"&$	c #823706",
"*$	c #8C400F",
"=$	c #944917",
"-$	c #8D4110",
";$	c #8D4210",
">$	c #954A18",
",$	c #964B19",
"'$	c #974B1A",
")$	c #974C1A",
"!$	c #8F5D26",
"~$	c #7D6C2D",
"{$	c #CCB04A",
"]$	c #CCB24B",
"^$	c #CEB450",
"/$	c #CFB454",
"($	c #CEB556",
"_$	c #C4A84F",
":$	c #955D23",
"<$	c #77370B",
"[$	c #682F0A",
"}$	c #70472D",
"|$	c #856C5B",
"1$	c #998A81",
"2$	c #887061",
"3$	c #863E10",
"4$	c #8E4411",
"5$	c #A86A41",
"6$	c #813605",
"7$	c #8C410F",
"8$	c #904513",
"9$	c #883D0B",
"0$	c #934715",
"a$	c #934816",
"b$	c #8B581F",
"c$	c #7C692D",
"d$	c #CBAD46",
"e$	c #CBAD48",
"f$	c #CDAF4A",
"g$	c #CDB14E",
"h$	c #B58837",
"i$	c #8C440D",
"j$	c #873B08",
"k$	c #883C09",
"l$	c #883C0A",
"m$	c #893C0A",
"n$	c #893D0A",
"o$	c #8A3D0B",
"p$	c #8A3E0B",
"q$	c #8A3E0C",
"r$	c #8B3F0C",
"s$	c #8B3F0D",
"t$	c #893E0B",
"u$	c #833806",
"v$	c #8C410E",
"w$	c #8D410F",
"x$	c #893D0B",
"y$	c #8E4210",
"z$	c #8E4311",
"A$	c #8F4311",
"B$	c #8F4412",
"C$	c #904412",
"D$	c #89551D",
"E$	c #7A672A",
"F$	c #CAAB42",
"G$	c #C8A741",
"H$	c #B2842E",
"I$	c #915011",
"J$	c #833604",
"K$	c #833704",
"L$	c #843704",
"M$	c #843705",
"N$	c #853805",
"O$	c #853806",
"P$	c #853906",
"Q$	c #873A08",
"R$	c #883B09",
"S$	c #843906",
"T$	c #863B08",
"U$	c #8B3E0C",
"V$	c #8C400E",
"W$	c #86501B",
"X$	c #7C551A",
"Y$	c #935312",
"Z$	c #833903",
"`$	c #803401",
" %	c #813401",
".%	c #813502",
"+%	c #823502",
"@%	c #823603",
"#%	c #833603",
"$%	c #813704",
"%%	c #853907",
"&%	c #834F18",
"*%	c #805217",
"=%	c #814E15",
"-%	c #804D14",
";%	c #814F16",
">%	c #825018",
",%	c #86541C",
"'%	c #86541D",
")%	c #86551D",
"!%	c #86551E",
"~%	c #865620",
"{%	c #85531C",
"]%	c #85541C",
"^%	c #85531D",
"/%	c #84511B",
"(%	c #875620",
"_%	c #87561F",
":%	c #87551F",
"<%	c #84521A",
"[%	c #835118",
"}%	c #825017",
"|%	c #835018",
"1%	c #835116",
"                                                                ",
"    . + @ @ # $ $ $ $ $ $ % @ @ @ @ @ & $ $ $ $ $ * @ @ + .     ",
"  . = - ; ; > , ' ' ' ' ' ) ! ! ! ! ~ ' ' ' ' ' { ! ; ; - = .   ",
"  ] ^ / ( _ : < [ } } } } | 1 2 3 4 5 6 7 } } 8 9 : _ ( / ^ ]   ",
"  0 a b c d e f g h h h h i j k k k k l m k n o p q r s t a 0   ",
"  u v w x y z A B C D E F m k k k k k k k k k k k k G H I v u   ",
"  J K L M N O B P Q R S k k k k k k T U k k k k k k V W X Y Z   ",
"  `  ...+.@.#.$.%.&.*.=.-.;.>.>.k ,.'.).!.j k k k k k ~.k {.].  ",
"  ^./.(._.:.<.[.}.|.1.2.3.4.5.6.7.8.9.0.a.b.;.>.k k c.d.e.f.g.  ",
"  h.i.j.k.l.m.n.o.p.q.r.s.t.u.v.w.x.y.z.A.B.C.6.D.E.F.G.D.H.I.  ",
"  J.K.L.M.N.O.P.Q.R.S.T.U.V.W.X.Y.Z.`. +.+++@+v.#+$+$+%+&+*+=+  ",
"  -+;+>+,+'+)+!+~+{+]+^+{+{+{+/+(+_+:+<+[+}+|+1+2+3+4+5+6+7+8+  ",
"  9+0+a+{+b+c+d+e+f+g+h+i+j+{+k+l+m+n+o+p+q+q+r+(+s+t+u+v+v+w+  ",
"  x+0+y+z+A+B+C+D+0+0+E+F+G+H+I+J+K+7+L+M+N+O+O+P+m+Q+%+p+r+R+  ",
"  S+0+T+U+0+V+W+0+0+0+0+0+0+0+0+F+X+Y+Z+`+ @.@+@@@#@7+7+L+M+$@  ",
"  %@&@*@0+=@-@0+0+0+0+0+0+0+0+0+;@>@,@'@)@!@~@{@]@^@/@(@Z+ @_@  ",
"  :@<@[@}@|@}@1@0+0+0+0+0+0+}@2@3@4@5@6@7@8@9@9@0@a@b@'@'@!@c@  ",
"  d@e@f@g@h@i@i@i@}@}@}@j@f@e@&@k@l@m@n@o@p@p@q@q@r@s@t@6@7@u@  ",
"  v@w@w@x@y@j@z@z@z@z@A@B@e@e@2@C@D@E@F@G@H@I@J@K@L@L@n@n@o@M@  ",
"  N@[@O@2@A@P@2@&@Q@R@w@O@O@O@O@S@T@U@V@G@W@X@Y@Z@`@D@ #.#+#@#  ",
"  ##[@<@<@[@$#%#&#<@O@w@[@[@[@*#=#-#;#>#,#'#)#!#U@~#T@{#]#]#^#  ",
"  /#(#(#B@B@f@(#_#_#<@[@[@<@<@:#<#-#[#}#|#1#2#3#4#4#5#6#X@7#8#  ",
"  9#P@P@P@x@x@y@y@(#(#B@f@_#f@0#a#b#c#d#e#f#g#h#i#j#k#l#|#|#m#  ",
"  n#o#A@A@p#p#p#q#q#P@P@x@y@B@r#s#t#u#v#w#x#y#z#A#b#B#C#i#D#E#  ",
"  F#G#G#Q@Q@R@R@R@o#o#A@A@p#q#H#I#J#K#L#M#N#O#P#Q#R#A#A#S#T#U#  ",
"  V#W#X#Y#Z#`# $.$+$G#G#Q@Q@R@@$#$$$%$&$*$=$-$;$>$I#,$'$)$N#!$  ",
"  ~${$]$^$/$($_$:$<$[$}$|$1$2$3$4$5$;$6$7$8$9$8$%$#$0$a$a$=$b$  ",
"  c$d$e$f$g$h$i$j$k$l$m$n$o$p$q$r$s$t$u$v$w$x$y$y$z$A$B$C$C$D$  ",
"  E$F$G$H$I$J$K$L$M$N$O$P$k+k+Q$j$R$S$T$n$l$x$q$U$r$s$V$V$v$W$  ",
"  X$Y$Z${+{+{+{+{+`$ %.%+%@%#%J$K$M$$%N$P$%%k+k+j$j$R$l$m$n$&%  ",
"    *%=%-%;%>%,%'%)%!%!%~%{%]%^%^%]%/%(%(%(%_%:%_%<%[%}%|%1%    ",
"                                                                "};
